<svg xmlns="http://www.w3.org/2000/svg" version="1.1" xmlns:xlink="http://www.w3.org/1999/xlink" xmlns:svgjs="http://svgjs.dev/svgjs" width="1500" height="1406" viewBox="0 0 1500 1406"><g transform="matrix(1,0,0,1,0,0)"><svg viewBox="0 0 384 360" data-background-color="#f9f6ed" preserveAspectRatio="xMidYMid meet" height="1406" width="1500" xmlns="http://www.w3.org/2000/svg" xmlns:xlink="http://www.w3.org/1999/xlink"><g id="tight-bounds" transform="matrix(1,0,0,1,0,0)"><svg viewBox="0 0 384 360" height="360" width="384"><g><svg></svg></g><g><svg viewBox="0 0 384 360" height="360" width="384"><g><path d="M362.354 145.441v-42.24c0-21.12-19.163-38.402-42.587-38.402h-93.208c-15.198 0-28.337-8.831-34.559-21.646-6.222 12.81-19.36 21.646-34.559 21.646h-93.208c-23.424 0-42.587 17.282-42.587 38.402v42.24c0 15.198-8.831 28.337-21.646 34.559 12.81 6.222 21.646 19.36 21.646 34.559v42.24c0 21.12 19.163 38.402 42.587 38.402h93.208c15.198 0 28.337 8.831 34.559 21.646 6.222-12.81 19.36-21.646 34.559-21.646h93.208c23.424 0 42.587-17.282 42.587-38.402v-42.24c0-15.198 8.831-28.337 21.646-34.559-12.81-6.222-21.646-19.36-21.646-34.559z" fill="#21272d" fill-rule="nonzero" stroke="none" stroke-width="1" stroke-linecap="butt" stroke-linejoin="miter" stroke-miterlimit="10" stroke-dasharray="" stroke-dashoffset="0" font-family="none" font-weight="none" font-size="none" text-anchor="none" style="mix-blend-mode: normal" data-fill-palette-color="tertiary"></path></g><g transform="matrix(1,0,0,1,76.80000000000001,101.41362113881654)"><svg viewBox="0 0 230.39999999999998 157.17275772236692" height="157.17275772236692" width="230.39999999999998"><g><svg viewBox="0 0 230.39999999999998 157.17275772236692" height="157.17275772236692" width="230.39999999999998"><g><svg viewBox="0 0 230.39999999999998 157.17275772236692" height="157.17275772236692" width="230.39999999999998"><g id="textblocktransform"><svg viewBox="0 0 230.39999999999998 157.17275772236692" height="157.17275772236692" width="230.39999999999998" id="textblock"><g><svg viewBox="0 0 230.39999999999998 157.17275772236692" height="157.17275772236692" width="230.39999999999998"><g transform="matrix(1,0,0,1,0,0)"><svg width="230.39999999999998" viewBox="2.54 -36.25 65.6 44.75" height="157.17275772236692" data-palette-color="#f9f6ed"><path d="M37.26-17.9L37.26-17.9Q37.26-5.76 29.54-1.54L29.54-1.54 38.26 8.5 26.25 8.5 19.95 0.56 19.92 0.54 19.92 0.51 19.9 0.49Q11.5 0.49 7.02-4.22 2.54-8.94 2.54-17.94L2.54-17.94Q2.54-26.86 6.99-31.56 11.45-36.25 19.95-36.25L19.95-36.25Q28.47-36.25 32.86-31.59 37.26-26.93 37.26-17.9ZM12.7-17.9L12.7-17.9Q12.7-7.54 19.9-7.54L19.9-7.54Q23.56-7.54 25.33-10.06 27.1-12.57 27.1-17.9L27.1-17.9Q27.1-23.24 25.31-25.79 23.51-28.34 19.95-28.34L19.95-28.34Q12.7-28.34 12.7-17.9ZM59.45-27.81L59.45 0 49.8 0 49.8-27.81 41.09-27.81 41.09-35.69 68.14-35.69 68.14-27.81 59.45-27.81Z" opacity="1" transform="matrix(1,0,0,1,0,0)" fill="#f9f6ed" class="wordmark-text-0" data-fill-palette-color="quaternary" id="text-0"></path></svg></g></svg></g></svg></g></svg></g></svg></g></svg></g></svg></g><defs></defs></svg><rect width="384" height="360" fill="none" stroke="none" visibility="hidden"></rect></g></svg></g></svg>