<svg width="284" height="90" viewBox="0 0 284 90" fill="none" xmlns="http://www.w3.org/2000/svg">
<path fill-rule="evenodd" clip-rule="evenodd" d="M4.85934 31.5013L2.05078 0H32.912L30.1005 31.4963L17.4625 35L4.85934 31.5013Z" fill="#E44D26"/>
<path fill-rule="evenodd" clip-rule="evenodd" d="M17.4814 32.3219L27.6935 29.4907L30.0961 2.57568H17.4814V32.3219Z" fill="#F16529"/>
<path d="M12.369 14.259H17.4814V18.1225H8.8356L7.79355 6.43921H17.4814V10.3028H12.0159L12.369 14.259Z" fill="#EBEBEB"/>
<path d="M17.4644 24.2975L17.4814 24.293V28.3126L17.4636 28.3176L9.5495 26.1206L9.00823 20.0543H12.8866L13.1616 23.1356L17.4644 24.2975Z" fill="#EBEBEB"/>
<path d="M17.468 6.43921H27.1462L26.8002 10.3028H17.468V6.43921Z" fill="white"/>
<path d="M17.468 18.1225V14.259H26.4487L26.3544 15.2965L25.3884 26.1206L17.468 28.3157V24.2962L21.7771 23.1332L22.2255 18.1225H17.468Z" fill="white"/>
<path fill-rule="evenodd" clip-rule="evenodd" d="M4.85942 86.5011L2.05078 55H32.9133L30.1016 86.496L17.4634 90L4.85942 86.5011Z" fill="#0071BC"/>
<path fill-rule="evenodd" clip-rule="evenodd" d="M17.5079 87.3199L27.7076 84.5139L30.0974 57.6233H17.5079V87.3199Z" fill="#29ABE2"/>
<path fill-rule="evenodd" clip-rule="evenodd" d="M8.47974 69.1968L8.81807 73.0546L17.5079 69.1968V65.3328L8.47974 69.1968Z" fill="#B3B3B3"/>
<path fill-rule="evenodd" clip-rule="evenodd" d="M27.1322 61.208L17.5079 65.3327V69.1968L26.8004 65.0658L27.1322 61.208Z" fill="#E6E6E6"/>
<path fill-rule="evenodd" clip-rule="evenodd" d="M17.508 79.2906L17.4781 79.295L13.1685 78.1377L12.887 75.0605H9.00842L9.54967 81.1227L17.4772 83.3177L17.508 83.3105V79.2906Z" fill="#E6E6E6"/>
<path fill-rule="evenodd" clip-rule="evenodd" d="M17.5079 69.1968V73.0546H22.2262L21.7974 78.0984L17.5079 79.294V83.3136L25.4092 81.1186L26.4496 69.1968H17.5079Z" fill="white"/>
<path fill-rule="evenodd" clip-rule="evenodd" d="M17.5079 69.1968H8.47974L8.81807 73.0546H17.5079V69.1968Z" fill="#E6E6E6"/>
<path fill-rule="evenodd" clip-rule="evenodd" d="M17.5079 65.0658V61.208H17.4688H7.79382L8.13617 65.0658H17.5079Z" fill="#E6E6E6"/>
<path fill-rule="evenodd" clip-rule="evenodd" d="M17.5079 61.208V65.0174V65.0658H26.8004L27.1322 61.208H17.5079Z" fill="white"/>
<g clip-path="url(#clip0_10_3951)">
<path fill-rule="evenodd" clip-rule="evenodd" d="M62 0H97V35H62V0Z" fill="#F7DF1E"/>
<path fill-rule="evenodd" clip-rule="evenodd" d="M71.2028 29.2485L73.8813 27.6276C74.398 28.5437 74.868 29.3189 75.9955 29.3189C77.0763 29.3189 77.7577 28.8961 77.7577 27.2517V16.0684H81.0468V27.2982C81.0468 30.7049 79.0499 32.2555 76.1365 32.2555C73.5054 32.2555 71.978 30.8927 71.2028 29.2482" fill="black"/>
<path fill-rule="evenodd" clip-rule="evenodd" d="M82.8333 28.8961L85.5115 27.3455C86.2165 28.4969 87.1327 29.3426 88.7537 29.3426C90.1166 29.3426 90.9856 28.6612 90.9856 27.7214C90.9856 26.5937 90.0929 26.1943 88.5892 25.5366L87.7672 25.184C85.3941 24.1739 83.82 22.9053 83.82 20.2269C83.82 17.76 85.6995 15.8804 88.6363 15.8804C90.7273 15.8804 92.231 16.6088 93.3116 18.5118L90.7507 20.1563C90.1868 19.1461 89.5761 18.7468 88.6364 18.7468C87.6731 18.7468 87.0622 19.3576 87.0622 20.1563C87.0622 21.1431 87.6731 21.5426 89.0826 22.1535L89.9048 22.5059C92.7007 23.7041 94.2748 24.9257 94.2748 27.6744C94.2748 30.6349 91.949 32.2558 88.8243 32.2558C85.7701 32.2558 83.7965 30.7993 82.8334 28.8961" fill="black"/>
</g>
<g clip-path="url(#clip1_10_3951)">
<path d="M64.7344 55H94.2656C95.7758 55 97 56.2242 97 57.7344V87.2656C97 88.7758 95.7758 90 94.2656 90H64.7344C63.2242 90 62 88.7758 62 87.2656V57.7344C62 56.2242 63.2242 55 64.7344 55Z" fill="#3178C6"/>
<path d="M82.5786 82.4087V86.1849C83.1928 86.4996 83.9192 86.7356 84.7577 86.8929C85.5962 87.0503 86.4799 87.1289 87.409 87.1289C88.3144 87.1289 89.1746 87.0424 89.9895 86.8693C90.8043 86.6962 91.5189 86.411 92.1329 86.0138C92.7471 85.6165 93.2333 85.0973 93.5916 84.4561C93.9498 83.815 94.1289 83.0224 94.1289 82.0784C94.1289 81.394 94.0265 80.794 93.8218 80.2787C93.6172 79.7635 93.3219 79.3052 92.936 78.904C92.5504 78.5028 92.0877 78.1429 91.5485 77.8242C91.0091 77.5057 90.4009 77.2048 89.7237 76.9216C89.2277 76.717 88.7829 76.5184 88.3892 76.3257C87.9956 76.1329 87.6609 75.9363 87.3854 75.7356C87.1098 75.535 86.8972 75.3226 86.7476 75.0983C86.598 74.8741 86.5232 74.6205 86.5232 74.3372C86.5232 74.0776 86.5901 73.8437 86.7239 73.6352C86.8578 73.4267 87.0469 73.2477 87.2909 73.0983C87.535 72.9487 87.8341 72.8328 88.1885 72.7501C88.5427 72.6675 88.9365 72.6262 89.3695 72.6262C89.6845 72.6262 90.0171 72.6498 90.3674 72.697C90.7178 72.7442 91.0701 72.8169 91.4245 72.9154C91.7787 73.0137 92.1231 73.1375 92.4578 73.2871C92.7923 73.4365 93.1015 73.6096 93.3849 73.8062V70.2779C92.8101 70.0577 92.1822 69.8944 91.5012 69.7882C90.8202 69.682 90.0387 69.6289 89.1569 69.6289C88.2593 69.6289 87.409 69.7253 86.606 69.9181C85.8029 70.1107 85.0962 70.4116 84.486 70.8207C83.8758 71.2299 83.3936 71.7511 83.0392 72.3843C82.685 73.0176 82.5078 73.7748 82.5078 74.6559C82.5078 75.7808 82.8325 76.7406 83.4822 77.5352C84.1318 78.3297 85.1178 79.0023 86.4405 79.553C86.9602 79.7655 87.4445 79.9739 87.8932 80.1785C88.342 80.3831 88.7297 80.5954 89.0565 80.8156C89.3833 81.0359 89.6411 81.2758 89.8301 81.5355C90.019 81.7951 90.1135 82.0901 90.1135 82.4206C90.1135 82.6644 90.0544 82.8906 89.9363 83.0991C89.8183 83.3075 89.6391 83.4885 89.399 83.6419C89.1589 83.7953 88.8596 83.9152 88.5014 84.0017C88.1432 84.0883 87.7239 84.1316 87.2436 84.1316C86.4248 84.1316 85.6139 83.9881 84.8108 83.7008C84.0076 83.4137 83.2636 82.983 82.5786 82.4087ZM76.2846 73.0116H81.1406V69.9023H67.6055V73.0116H72.4378V86.8555H76.2846V73.0116Z" fill="white"/>
</g>
<path d="M141.5 20.5857C143.301 20.5857 144.761 19.2042 144.761 17.5C144.761 15.7958 143.301 14.4143 141.5 14.4143C139.699 14.4143 138.239 15.7958 138.239 17.5C138.239 19.2042 139.699 20.5857 141.5 20.5857Z" fill="#61DAFB"/>
<path d="M141.5 23.822C151.165 23.822 159 20.9916 159 17.5001C159 14.0086 151.165 11.1782 141.5 11.1782C131.835 11.1782 124 14.0086 124 17.5001C124 20.9916 131.835 23.822 141.5 23.822Z" stroke="#61DAFB" stroke-width="5"/>
<path d="M135.713 20.6609C140.546 28.5802 147.054 33.5848 150.25 31.8391C153.446 30.0933 152.119 22.2583 147.287 14.3391C142.454 6.41981 135.946 1.4152 132.75 3.16094C129.554 4.90668 130.881 12.7417 135.713 20.6609Z" stroke="#61DAFB" stroke-width="5"/>
<path d="M135.713 14.3389C130.881 22.2582 129.554 30.0932 132.75 31.8389C135.946 33.5847 142.454 28.5801 147.287 20.6608C152.119 12.7416 153.446 4.90658 150.25 3.16084C147.054 1.41509 140.546 6.41971 135.713 14.3389Z" stroke="#61DAFB" stroke-width="5"/>
<path d="M141.5 61.9727C136.833 61.9727 133.917 64.306 132.75 68.9727C134.5 66.6393 136.542 65.7643 138.875 66.3477C140.206 66.6805 141.158 67.6463 142.211 68.7154C143.927 70.457 145.913 72.4727 150.25 72.4727C154.917 72.4727 157.833 70.1393 159 65.4727C157.25 67.806 155.208 68.681 152.875 68.0977C151.544 67.7648 150.592 66.799 149.539 65.7299C147.823 63.9883 145.837 61.9727 141.5 61.9727ZM132.75 72.4727C128.083 72.4727 125.167 74.806 124 79.4727C125.75 77.1393 127.792 76.2643 130.125 76.8477C131.456 77.1805 132.408 78.1463 133.461 79.2154C135.177 80.957 137.163 82.9727 141.5 82.9727C146.167 82.9727 149.083 80.6393 150.25 75.9727C148.5 78.306 146.458 79.181 144.125 78.5977C142.794 78.2648 141.842 77.299 140.789 76.2299C139.073 74.4883 137.087 72.4727 132.75 72.4727Z" fill="url(#paint0_linear_10_3951)"/>
<path d="M197.712 34.9999C200.932 34.9999 203.546 32.3866 203.546 29.1666V23.3333H197.712C194.492 23.3333 191.879 25.9466 191.879 29.1666C191.879 32.3866 194.492 34.9999 197.712 34.9999Z" fill="#0ACF83"/>
<path d="M191.879 17.5001C191.879 14.2801 194.492 11.6667 197.712 11.6667H203.546V23.3334H197.712C194.492 23.3334 191.879 20.7201 191.879 17.5001Z" fill="#A259FF"/>
<path d="M191.879 5.83333C191.879 2.61333 194.492 0 197.712 0H203.546V11.6667H197.712C194.492 11.6667 191.879 9.05333 191.879 5.83333Z" fill="#F24E1E"/>
<path d="M203.546 0H209.379C212.599 0 215.212 2.61333 215.212 5.83333C215.212 9.05333 212.599 11.6667 209.379 11.6667H203.546V0Z" fill="#FF7262"/>
<path d="M215.212 17.5001C215.212 20.7201 212.599 23.3334 209.379 23.3334C206.159 23.3334 203.546 20.7201 203.546 17.5001C203.546 14.2801 206.159 11.6667 209.379 11.6667C212.599 11.6667 215.212 14.2801 215.212 17.5001Z" fill="#1ABCFE"/>
<g clip-path="url(#clip2_10_3951)">
<path d="M203.5 88C213.165 88 221 80.165 221 70.5C221 60.835 213.165 53 203.5 53C193.835 53 186 60.835 186 70.5C186 80.165 193.835 88 203.5 88Z" fill="black"/>
<path d="M215.071 83.629L199.444 63.5H196.5V77.4942H198.855V66.4912L213.222 85.0532C213.87 84.6193 214.488 84.1433 215.071 83.629Z" fill="url(#paint1_linear_10_3951)"/>
<path d="M210.695 63.5H208.361V77.5H210.695V63.5Z" fill="url(#paint2_linear_10_3951)"/>
</g>
<path d="M265.5 2.32422L283 32.6355H248L265.5 2.32422Z" fill="white"/>
<path d="M265.943 49C256.035 49 248 57.0332 248 66.943C248 74.8708 253.141 81.5966 260.271 83.9692C261.167 84.1352 261.497 83.5799 261.497 83.106C261.497 82.6782 261.48 81.2646 261.472 79.7653C256.48 80.8507 255.427 77.6483 255.427 77.6483C254.611 75.5743 253.435 75.0229 253.435 75.0229C251.807 73.9093 253.557 73.9321 253.557 73.9321C255.359 74.0587 256.308 75.7812 256.308 75.7812C257.908 78.5243 260.506 77.7312 261.529 77.2728C261.69 76.113 262.156 75.3216 262.669 74.8735C258.683 74.4197 254.494 72.8811 254.494 66.0059C254.494 64.047 255.195 62.4463 256.343 61.1898C256.156 60.7378 255.542 58.9129 256.516 56.4413C256.516 56.4413 258.023 55.9591 261.452 58.2806C262.883 57.8829 264.418 57.6836 265.943 57.6769C267.468 57.6836 269.004 57.8829 270.438 58.2806C273.863 55.9591 275.367 56.4413 275.367 56.4413C276.344 58.9129 275.73 60.7378 275.543 61.1898C276.694 62.4463 277.39 64.0469 277.39 66.0059C277.39 72.8974 273.192 74.415 269.197 74.8591C269.84 75.416 270.414 76.508 270.414 78.1819C270.414 80.5827 270.393 82.5149 270.393 83.106C270.393 83.5835 270.716 84.143 271.626 83.9668C278.751 81.5915 283.886 74.8681 283.886 66.943C283.886 57.0332 275.852 49 265.943 49Z" fill="white"/>
<path d="M254.72 74.5604C254.681 74.6494 254.54 74.6762 254.413 74.6151C254.283 74.5566 254.209 74.435 254.252 74.3455C254.29 74.2537 254.431 74.2281 254.561 74.2898C254.691 74.3482 254.765 74.4709 254.72 74.5604ZM255.603 75.3479C255.517 75.4272 255.35 75.3904 255.236 75.265C255.119 75.1399 255.097 74.9727 255.184 74.8921C255.272 74.8128 255.434 74.8498 255.552 74.9751C255.669 75.1016 255.692 75.2678 255.603 75.348L255.603 75.3479ZM256.208 76.3554C256.098 76.4319 255.919 76.3602 255.807 76.2006C255.698 76.0412 255.698 75.8498 255.81 75.7731C255.921 75.6964 256.098 75.7654 256.211 75.9237C256.321 76.086 256.321 76.2773 256.208 76.3556L256.208 76.3554ZM257.232 77.5225C257.134 77.6308 256.925 77.6018 256.771 77.4538C256.614 77.3091 256.571 77.1038 256.669 76.9953C256.769 76.8867 256.979 76.9172 257.134 77.064C257.29 77.2084 257.337 77.4152 257.232 77.5225H257.232ZM258.556 77.9165C258.512 78.0569 258.311 78.1208 258.107 78.0612C257.905 77.9997 257.772 77.835 257.813 77.693C257.855 77.5516 258.058 77.485 258.262 77.5489C258.465 77.6101 258.598 77.7735 258.556 77.9165H258.556ZM260.062 78.0835C260.067 78.2316 259.895 78.3543 259.681 78.357C259.467 78.3616 259.293 78.2418 259.291 78.0963C259.291 77.9469 259.459 77.8253 259.674 77.8218C259.887 77.8176 260.062 77.9365 260.062 78.0835ZM261.542 78.0268C261.567 78.1712 261.419 78.3195 261.207 78.3589C260.999 78.3969 260.806 78.3078 260.779 78.1647C260.754 78.0167 260.905 77.8685 261.112 77.8301C261.325 77.7932 261.515 77.88 261.542 78.0268Z" fill="white"/>
<defs>
<linearGradient id="paint0_linear_10_3951" x1="123.028" y1="68.6927" x2="153.256" y2="86.1215" gradientUnits="userSpaceOnUse">
<stop stop-color="#2298BD"/>
<stop offset="1" stop-color="#0ED7B5"/>
</linearGradient>
<linearGradient id="paint1_linear_10_3951" x1="207.194" y1="75.6528" x2="214.097" y2="84.2083" gradientUnits="userSpaceOnUse">
<stop stop-color="white"/>
<stop offset="1" stop-color="white" stop-opacity="0"/>
</linearGradient>
<linearGradient id="paint2_linear_10_3951" x1="209.528" y1="63.5" x2="209.489" y2="73.7813" gradientUnits="userSpaceOnUse">
<stop stop-color="white"/>
<stop offset="1" stop-color="white" stop-opacity="0"/>
</linearGradient>
<clipPath id="clip0_10_3951">
<rect width="35" height="35" fill="white" transform="translate(62)"/>
</clipPath>
<clipPath id="clip1_10_3951">
<rect width="35" height="35" fill="white" transform="translate(62 55)"/>
</clipPath>
<clipPath id="clip2_10_3951">
<rect width="35" height="35" fill="white" transform="translate(186 53)"/>
</clipPath>
</defs>
</svg>
